<svg width="64.000000" height="64.000000" viewBox="0 0 64 64" fill="none" xmlns="http://www.w3.org/2000/svg" xmlns:xlink="http://www.w3.org/1999/xlink">
	<desc>
			Created with Pixso.
	</desc>
	<defs>
		<clipPath id="clip431_1872">
			<rect id="Frame" width="16.000000" height="16.000000" transform="translate(24.000000 24.000000)" fill="white" fill-opacity="0"/>
		</clipPath>
		<clipPath id="clip431_1870">
			<rect id="CallTouch" rx="31.500000" width="63.000000" height="63.000000" transform="translate(0.500000 0.500000)" fill="white" fill-opacity="0"/>
		</clipPath>
	</defs>
	<rect id="CallTouch" rx="31.500000" width="63.000000" height="63.000000" transform="translate(0.500000 0.500000)" fill="#0060FE" fill-opacity="1.000000"/>
	<g clip-path="url(#clip431_1870)">
		<rect id="Frame" width="16.000000" height="16.000000" transform="translate(24.000000 24.000000)" fill="#FFFFFF" fill-opacity="0"/>
		<g clip-path="url(#clip431_1872)">
			<path id="Vector" d="M38 34.94L38 37.3C38 37.47 37.93 37.63 37.82 37.75C37.7 37.88 37.54 37.95 37.37 37.96C37.08 37.98 36.85 38 36.66 38C30.77 38 26 33.22 26 27.33C26 27.14 26 26.91 26.03 26.62C26.04 26.45 26.11 26.29 26.24 26.17C26.36 26.06 26.52 25.99 26.69 26L29.05 26C29.13 25.99 29.21 26.03 29.27 26.08C29.33 26.14 29.37 26.21 29.38 26.3C29.4 26.45 29.41 26.57 29.42 26.66C29.56 27.59 29.83 28.49 30.23 29.33C30.29 29.46 30.25 29.62 30.13 29.71L28.69 30.74C29.57 32.79 31.21 34.42 33.25 35.3L34.28 33.86C34.32 33.8 34.38 33.76 34.45 33.74C34.52 33.73 34.6 33.73 34.66 33.76C35.51 34.16 36.41 34.44 37.33 34.57C37.42 34.58 37.54 34.59 37.7 34.61C37.78 34.62 37.85 34.66 37.91 34.72C37.96 34.78 38 34.86 38 34.94L38 34.94Z" fill="#FFFFFF" fill-opacity="1.000000" fill-rule="nonzero"/>
		</g>
	</g>
	<rect id="CallTouch" rx="31.500000" width="63.000000" height="63.000000" transform="translate(0.500000 0.500000)" stroke="#FFFFFF" stroke-opacity="0.200000" stroke-width="1.000000"/>
</svg>
