<svg width="48.000000" height="48.000000" viewBox="0 0 48 48" fill="none" xmlns="http://www.w3.org/2000/svg" xmlns:xlink="http://www.w3.org/1999/xlink">
	<desc>
			Created with Pixso.
	</desc>
	<defs>
		<clipPath id="clip358_321">
			<rect id="Frame" width="24.000000" height="24.000000" transform="translate(12.000000 12.000000)" fill="white" fill-opacity="0"/>
		</clipPath>
	</defs>
	<circle id="Ellipse 401" cx="24.000000" cy="24.000000" r="24.000000" fill="#F1F6FF" fill-opacity="0.200000"/>
	<rect id="Frame" width="24.000000" height="24.000000" transform="translate(12.000000 12.000000)" fill="#FFFFFF" fill-opacity="0"/>
	<g clip-path="url(#clip358_321)">
		<path id="Vector" d="M24 24C26.21 24 28 22.21 28 20C28 17.79 26.21 16 24 16C21.79 16 20 17.79 20 20C20 22.21 21.79 24 24 24ZM24 26C21.33 26 16 27.34 16 30L16 31C16 31.55 16.45 32 17 32L31 32C31.54 32 32 31.55 32 31L32 30C32 27.34 26.66 26 24 26Z" fill="#FFFFFF" fill-opacity="1.000000" fill-rule="nonzero"/>
	</g>
</svg>
