<svg width="653.000000" height="433.000000" viewBox="0 0 653 433" fill="none" xmlns="http://www.w3.org/2000/svg" xmlns:xlink="http://www.w3.org/1999/xlink">
	<desc>
			Created with Pixso.
	</desc>
	<defs>
		<clipPath id="clip358_331">
			<rect id="Frame" width="653.000000" height="433.000000" fill="white" fill-opacity="0"/>
		</clipPath>
	</defs>
	<g opacity="0.200000">
		<rect id="Frame" width="653.000000" height="433.000000" fill="#FFFFFF" fill-opacity="0"/>
		<g clip-path="url(#clip358_331)">
			<path id="Vector" d="M646.34 115.55C647.44 113.71 648.18 111.86 648.73 109.83C649.46 107.62 649.83 105.4 650.2 103.19C650.38 102.08 650.38 100.79 650.2 99.69C650.02 99.13 649.83 98.39 649.46 97.84C649.1 97.47 648.73 97.1 648.36 96.92C647.26 94.7 644.68 93.41 642.66 92.12C639.16 89.91 636.22 86.96 633.46 84C629.05 79.21 623.53 72.75 619.3 67.77C615.99 63.89 612.86 59.84 610.1 55.59C608.81 53.56 607.52 51.35 606.6 49.13C605.5 46.55 604.4 43.05 603.48 40.28C602.74 38.07 601.82 35.67 600.53 33.64C599.06 31.24 596.86 29.03 594.83 27L588.95 21.46C586.19 18.88 583.43 15.37 581.04 12.42C579.38 10.39 577.54 8.36 575.33 6.89C573.13 5.41 570.74 4.3 568.16 3.75C562.09 2.27 555.47 2.27 549.21 3.01C545.53 3.38 541.86 4.3 538.36 5.59C534.5 7.07 530.82 9.1 527.51 11.5C524.57 9.84 521.44 8.55 518.31 7.81C516.29 7.44 514.45 7.26 512.43 7.44C511.32 7.62 510.4 7.81 509.48 8.55C508.93 8.92 508.38 9.65 508.2 10.39C508.01 11.5 508.01 12.61 508.2 13.53C508.93 17.03 510.77 20.35 512.24 23.67C508.56 26.63 504.7 29.58 500.47 31.79C495.5 34.38 487.59 36.77 482.26 38.62C466.62 44.15 443.08 53.75 427.26 58.54C424.68 59.28 422.11 60.02 419.53 60.39C416.96 60.76 414.38 60.94 411.81 60.76C401.14 60.2 386.98 58.17 376.49 57.81C369.32 57.44 361.96 57.44 354.79 58.17C346.32 58.91 332.53 61.5 323.88 62.97C316.16 64.26 308.06 65.37 300.34 65.92C292.25 66.48 283.42 66.85 275.32 66.85C272.56 66.85 264.65 66.85 261.71 66.85L123.39 63.34C114.37 62.97 94.14 62.23 85.12 61.68C81.45 61.5 77.4 61.5 73.9 61.5C70.04 61.68 65.99 62.05 62.13 62.79C52.2 64.82 42.82 70.17 35.64 77.18C30.49 82.16 26.08 88.25 22.77 94.7C18.91 102.27 16.15 110.57 14.86 119.06C14.31 123.3 13.94 127.73 13.94 131.97C13.94 134.19 13.94 137.14 13.94 139.35C14.67 160.01 14.67 188.06 16.15 208.35C17.07 224.03 19.27 243.04 16.88 258.72C16.33 261.85 15.78 265.17 14.86 268.31C13.94 271.82 12.47 275.14 11.18 278.46C10.08 281.22 7.5 286.39 6.76 289.16C6.58 289.53 6.58 290.08 6.58 290.45L6.76 290.63C7.13 290.82 7.5 290.63 7.87 290.63C8.24 290.63 8.6 290.63 8.79 290.82C8.79 291.19 8.79 291.74 8.6 292.11C8.24 294.14 6.4 298.75 5.66 300.78C4.37 304.47 3.27 308.34 2.72 312.03C2.35 315.35 2.53 318.86 3.09 322.18C3.45 323.84 3.82 325.5 4.74 327.16C5.11 327.72 5.48 328.45 6.03 328.82C6.4 329.01 6.76 328.82 7.32 328.64C7.5 328.64 7.87 328.45 8.05 328.64C8.42 329.19 8.6 329.93 8.79 330.48C10.08 335.83 10.26 341.92 12.28 347.09C12.83 348.19 13.39 349.49 14.12 350.41C14.31 350.59 14.67 350.96 15.04 351.15C15.23 350.78 15.41 350.41 15.41 350.04C15.96 347.64 16.15 343.4 16.33 340.82C16.51 338.42 16.88 335.83 17.43 333.62C17.8 331.78 18.54 330.11 19.27 328.45C20.56 325.5 22.58 322.18 23.69 319.04C24.42 317.2 24.79 315.17 24.79 313.14C24.97 306.68 23.5 299.67 23.32 293.4C23.32 291.37 23.5 289.16 23.87 287.13C24.42 283.99 25.71 279.93 26.45 276.8C27.18 273.84 27.55 270.89 27.37 267.76C27.37 263.88 26.08 255.76 25.53 252.08C24.97 246.91 24.42 241.19 24.24 236.02C23.14 214.07 23.14 191.01 24.06 169.05C24.61 155.59 26.45 141.38 28.47 128.1C29.39 139.35 31.78 150.61 35.46 161.31C38.04 169.05 42.08 177.36 44.66 184.92C45.76 188.24 46.31 191.75 46.5 195.25C46.68 197.83 46.68 201.34 47.05 203.74C47.42 206.87 48.15 210.01 48.89 212.96C50.36 218.5 52.93 224.59 53.67 230.12C54.41 235.66 53.3 241.19 52.01 246.72C49.81 255.95 47.6 265.73 43.92 274.58C41.9 279.38 38.59 284.73 35.83 289.16C33.8 292.29 32.15 295.8 31.04 299.3C29.94 302.81 29.39 306.68 29.94 310.37C30.31 312.77 31.23 316.65 31.78 319.23C32.33 321.44 32.7 323.84 33.07 326.24C34.54 338.79 32.52 351.52 29.57 363.51L23.32 388.23C22.77 390.44 22.22 392.84 22.4 395.24C22.58 396.53 22.95 397.82 23.5 398.93C24.06 400.04 24.79 400.96 25.89 401.7C26.45 402.25 27.37 402.44 28.1 402.62C29.21 402.8 30.31 402.8 31.41 403.17C32.7 403.73 33.44 404.83 33.99 405.94C37.12 411.66 38.04 419.41 40.43 425.5C40.98 426.79 41.71 428.26 43.19 429C43.92 429.37 44.84 429.37 45.58 429.37C47.97 429.37 67.1 429.37 68.94 429.37C69.67 429.37 70.41 429.37 71.14 429.19C71.88 429 72.62 428.82 73.35 428.45C74.09 427.89 74.64 426.97 74.82 425.87C75.19 424.57 75.19 423.1 75.01 421.81C74.82 420.52 74.64 419.04 73.9 417.93C73.35 417.01 72.62 416.09 71.88 415.35C70.41 413.87 68.02 412.4 66.18 411.11C64.16 409.63 61.95 407.97 60.11 406.31C58.64 404.83 57.16 403.36 56.06 401.51C54.77 399.3 53.67 396.9 52.93 394.5C52.2 391.92 51.65 389.15 51.46 386.57C50.91 381.22 50.73 375.13 50.54 369.78C50.54 359.82 50.73 349.67 53.49 340.08C55.69 331.96 60.11 322.55 63.6 314.8C65.63 310.37 67.83 305.02 70.22 300.78C71.88 297.83 73.72 295.06 76.11 292.66C79.24 289.16 82.92 286.21 86.6 283.44C88.44 285.28 90.64 287.31 92.85 288.6C95.24 290.26 98.74 292.11 101.13 293.77C102.6 294.69 103.89 295.8 104.62 297.46C104.81 298.01 104.99 298.75 105.18 299.3C105.73 302.63 105.73 306.68 106.65 310.01C107.01 311.48 107.57 313.14 108.67 314.43C109.41 315.17 110.69 315.72 111.61 315.17C112.35 314.8 112.9 313.88 113.08 313.14C114.19 310.19 114.37 306.68 115.29 303.55C115.48 302.81 115.66 302.26 116.21 301.7C116.39 301.33 116.76 300.97 117.31 300.78C117.87 300.6 118.42 300.41 118.97 300.41C119.71 300.41 120.44 300.41 121.18 300.6C122.83 300.78 124.86 301.15 126.51 301.33C128.17 301.52 129.82 301.33 131.48 301.15C132.95 300.97 135.34 300.6 136.81 300.78C137.18 300.78 137.55 300.78 137.73 300.97C137.92 300.97 138.28 301.15 138.47 301.33C138.65 301.52 138.84 301.89 139.02 302.26C139.2 302.81 139.39 303.18 139.57 303.73C140.31 306.87 141.04 310.56 142.33 313.33C142.88 314.25 143.43 315.35 144.54 315.91C144.91 316.09 145.46 316.09 145.83 315.91C146.75 315.54 147.11 314.8 147.48 313.88C148.95 310.56 149.14 306.5 150.06 303.18C150.42 302.26 150.61 301.33 151.16 300.41C151.53 299.86 152.08 299.3 152.82 298.94C153.18 298.75 153.55 298.57 153.74 298.38C155.21 297.64 157.41 296.54 158.89 295.8C165.88 292.11 171.95 286.76 177.46 281.22C179.3 279.38 181.33 277.35 182.98 275.32C184.09 274.21 185.19 272.37 186.29 271.26C187.21 270.34 188.13 269.6 189.6 269.23C190.52 269.05 191.44 269.05 192.55 269.23C194.2 269.42 195.68 269.79 197.33 270.34C207.26 273.48 217.75 278.83 227.68 281.78C231.73 283.07 235.96 283.99 240.19 283.99C246.26 284.18 252.15 282.33 257.85 280.12C264.1 280.12 270.54 279.56 276.79 278.46C287.28 276.8 306.22 271.82 316.71 269.23C324.99 267.39 333.45 265.36 341.91 264.99C346.32 264.8 350.74 264.99 354.97 265.54C361.78 266.28 370.42 268.49 377.23 269.79C376.49 279.93 375.02 290.63 375.94 300.78C376.12 302.81 376.49 304.84 376.86 306.68C377.23 308.9 378.7 314.06 379.25 316.28C379.62 317.94 380.17 319.78 380.35 321.63C380.54 323.29 380.54 324.95 380.72 326.42C380.72 329.56 380.54 333.07 381.09 336.2C381.46 338.42 382.38 341.37 382.75 343.58C383.11 345.98 383.48 348.38 383.67 350.78C384.22 364.25 383.11 377.9 380.91 391.18C380.17 395.42 378.88 401.7 377.96 405.94C377.78 406.68 377.78 407.23 377.78 407.97C377.78 409.08 377.96 410.37 378.52 411.29C378.88 411.84 379.25 412.21 379.62 412.58C379.99 412.95 380.35 413.5 380.91 413.69C381.64 414.06 382.38 414.24 383.3 414.24C384.95 414.24 386.79 413.5 388.45 413.14C388.82 413.14 389 412.95 389.37 412.95C389.74 412.95 389.92 412.95 390.29 413.14C390.66 413.32 390.84 413.5 391.21 413.87C391.94 414.8 392.13 416.09 392.68 417.19C393.78 420.15 394.7 424.02 396.36 426.79C396.72 427.34 397.09 428.08 397.64 428.63C398.01 429 398.38 429.19 398.93 429.37C399.67 429.56 400.4 429.74 401.14 429.74L425.24 429.74C425.42 429.74 425.6 429.74 425.79 429.74C426.16 429.74 426.34 429.74 426.71 429.56C427.08 429.37 427.26 429 427.44 428.63C427.81 427.71 428 426.6 428.18 425.68C428.36 424.02 428.36 422.18 428.18 420.52C428 419.59 427.81 418.67 427.26 417.75C426.71 416.64 425.97 415.72 425.24 414.98C422.66 412.4 419.53 410 416.41 407.97C414.75 406.86 411.99 405.2 410.52 404.1C409.23 403.17 408.13 402.07 407.39 400.77C406.66 399.48 406.29 398.19 405.92 396.9C404.64 391.55 404.08 385.65 403.72 380.3C402.98 370.7 402.61 360.92 403.16 351.33C403.53 346.17 403.9 340.82 405.37 335.83C406.11 333.25 407.39 330.3 408.13 327.9C409.05 325.5 409.6 322.92 410.15 320.34C411.26 314.43 412.54 304.29 413.83 298.57C415.49 291 417.51 283.07 420.45 275.87C424.5 275.69 428.73 275.32 432.59 273.84C435.35 272.74 437.93 270.89 440.14 268.68C442.71 266.1 445.65 261.48 447.86 258.35C448.97 256.69 450.25 255.03 451.72 253.37C453.01 251.89 455.4 249.68 456.69 248.39C459.27 245.8 461.66 243.04 463.5 239.9C466.62 234.55 468.65 228.64 470.67 222.74C472.33 217.58 476.56 203.74 478.58 198.76C479.13 197.28 479.87 195.81 480.42 194.51C482.08 191.19 485.02 188.24 487.41 185.47C489.98 182.34 492.93 178.46 495.5 175.14C500.1 168.87 524.01 136.21 527.88 130.5C530.82 126.07 533.76 121.46 536.15 116.66C540.75 117.77 545.53 118.32 550.13 118.69C555.65 119.06 564.48 118.87 570.18 118.87C573.68 118.87 577.54 119.06 581.04 119.24C590.97 120.16 601.27 122.56 610.84 125.33C613.78 126.07 616.72 126.81 619.67 126.25C622.42 125.7 625 124.22 627.21 122.38C629.97 122.56 632.72 122.56 635.48 121.82C636.77 121.64 637.88 121.27 638.98 120.53C641 120.16 641.92 119.61 642.66 118.69C644.31 118.32 645.6 117.03 646.34 115.55Z" stroke="#F1F6FF" stroke-opacity="1.000000" stroke-width="3.000000" stroke-linejoin="round"/>
			<path id="Vector" d="M217.78 65.67C219.99 70.47 222.75 75.64 227.9 78.03C231.03 79.33 234.52 79.51 238.02 79.33C242.43 79.14 247.95 78.77 252.37 79.51C255.13 79.88 257.88 80.8 260.46 82.09C266.9 85.41 272.05 90.95 274.99 97.59C276.1 99.99 276.83 102.57 276.83 105.16C277.01 106.82 276.83 108.66 276.1 110.14C274.99 112.9 272.78 115.12 270.02 116.41C268.55 117.15 266.71 117.52 265.06 117.7C262.67 118.07 259.91 118.25 257.52 119.18C256.23 119.73 255.13 120.28 254.02 121.21C252.73 122.5 251.63 123.97 250.71 125.45C249.42 127.85 248.5 130.43 247.77 133.2C247.22 135.41 246.85 137.81 246.85 140.21C246.85 141.87 247.03 143.53 247.4 145C247.95 147.59 249.61 149.99 250.89 152.38C251.81 153.86 252.55 155.52 252.73 157.37C252.92 158.29 252.92 159.21 252.73 160.32C252.55 162.9 251.81 166.41 251.26 168.99C250.71 172.49 249.97 176.37 251.63 179.69C252.55 181.53 254.02 183.01 255.86 183.93C257.52 184.86 259.35 185.04 261.2 185.04C263.03 184.86 264.69 184.12 266.35 183.38C269.47 181.9 272.6 179.51 275.73 178.21C276.65 177.84 277.75 177.66 278.67 178.03C279.22 178.21 279.77 178.58 280.14 179.14C280.69 180.06 281.06 181.17 281.25 182.09C281.43 183.75 281.06 185.41 280.32 186.88C279.59 188.18 278.67 189.28 277.75 190.39C276.28 192.05 274.44 193.34 272.6 194.63C266.53 199.06 259.54 203.67 254.57 209.58C253.29 211.24 252 213.08 251.45 215.3C251.26 216.4 251.26 217.51 251.63 218.43C252 219.54 252.55 220.46 253.29 221.2C254.57 222.49 256.04 223.23 257.7 223.78C260.28 224.71 263.22 224.89 265.98 224.34C267.63 223.97 269.1 223.6 270.39 222.68C272.78 221.38 274.62 219.54 276.46 217.51C279.22 214.37 281.98 210.13 284.56 206.81C286.4 204.41 288.97 202.01 290.63 199.61C291.55 198.32 292.28 196.85 292.83 195.37C294.86 189.84 295.96 183.56 299.09 178.58C299.64 177.66 300.56 176.74 301.29 176C302.4 175.08 303.69 174.34 305.16 174.15C305.89 173.97 306.63 173.97 307.37 174.34C307.92 174.52 308.47 175.08 308.65 175.63C308.84 176.18 309.02 176.74 309.02 177.29C309.02 178.03 309.02 178.77 308.84 179.32C308.47 181.35 307.73 184.12 307.37 186.15C307 187.99 306.45 190.02 306.63 192.05C306.63 192.97 306.81 193.9 307.18 194.63C308.1 196.29 309.94 197.4 311.6 198.14C313.43 199.06 315.64 199.98 317.3 201.09C319.69 202.94 320.79 206.26 321.9 208.84C322.63 210.5 323.55 212.34 325.21 213.45C326.31 214.19 327.6 214.37 328.89 214.37C330.73 214.37 332.57 213.82 334.22 212.9C337.72 211.05 339.92 207.55 340.84 203.86C341.76 200.54 341.76 196.85 340.29 193.71C339.37 191.5 337.9 189.47 336.98 187.07C336.61 185.96 336.43 184.67 336.8 183.38C337.16 182.09 337.72 180.98 338.27 179.69C339.92 176.74 342.5 173.42 344.15 170.47C344.89 169.17 345.44 167.7 345.63 166.22C345.99 162.53 343.6 159.39 341.95 156.26C341.21 154.78 340.29 153.12 340.11 151.46C339.37 146.11 343.05 141.13 345.44 136.7C346.91 134.12 348.2 131.35 348.75 128.4C349.3 125.82 349.49 123.24 349.49 120.47C349.49 117.52 349.12 114.56 348.38 111.61C347.65 108.66 346.36 105.52 344.52 103.13C341.39 99.25 336.61 96.85 332.38 94.09C331.09 93.16 329.62 92.24 328.33 91.13C327.05 90.03 325.94 88.74 324.84 87.44C322.63 84.68 320.98 81.36 319.87 78.03C318.4 73.61 317.67 68.81 317.85 64.01" stroke="#F1F6FF" stroke-opacity="1.000000" stroke-width="1.500000" stroke-linejoin="round" stroke-linecap="round"/>
			<path id="Vector" d="M14.53 169.73C15.08 171.57 16 173.42 17.1 175.08C17.84 176 18.57 176.74 19.68 177.11C20.41 177.29 21.15 177.29 21.88 177.11C23.17 176.74 24.46 175.82 25.56 175.08" stroke="#F1F6FF" stroke-opacity="1.000000" stroke-width="1.500000" stroke-linejoin="round" stroke-linecap="round"/>
			<path id="Vector" d="M46.53 186.52C48.92 184.3 51.68 181.9 54.81 180.8C56.28 180.43 57.75 180.24 59.23 180.24C62.17 180.24 65.3 180.43 68.05 179.51C70.45 178.77 72.29 176.92 73.76 175.08C76.7 171.2 78.54 166.41 79.64 161.79C80.2 159.39 80.75 155.89 81.48 153.31C81.85 152.2 82.22 150.91 82.95 149.8C84.79 146.67 89.02 146.3 92.33 147.03C94.54 147.4 96.57 148.33 98.59 149.25C100.98 150.36 103.56 152.02 106.13 152.57C107.23 152.75 108.34 152.94 109.44 152.75C110.91 152.57 112.39 151.83 113.49 150.91C115.14 149.62 116.43 147.77 117.17 145.74C117.54 144.27 117.72 142.79 117.72 141.13C117.35 134.67 114.22 127.85 114.41 121.21C114.41 118.81 114.96 116.41 115.88 114.01C117.17 110.51 119.56 107 120.66 103.49C121.03 102.2 121.4 100.73 121.21 99.25C121.03 98.14 120.66 96.85 119.93 95.93C118.09 93.16 114.96 90.58 112.39 88.18C110.73 86.52 108.89 84.86 107.79 82.65C106.5 80.25 106.13 77.3 105.03 74.71C104.11 72.68 103 70.84 101.72 68.99C99.88 66.41 97.85 64.01 95.65 61.8" stroke="#F1F6FF" stroke-opacity="1.000000" stroke-width="1.500000" stroke-linejoin="round" stroke-linecap="round"/>
			<path id="Vector" d="M381.49 58.11C379.84 59.95 378.37 61.98 377.26 64.2C376.53 65.67 375.98 67.33 375.79 69.18C375.61 71.76 376.34 74.34 376.71 76.93C376.9 78.59 376.9 80.25 376.16 81.72C375.61 83.2 374.69 84.31 373.77 85.6C371.75 88.18 369.17 90.76 368.07 94.09C366.96 97.59 368.07 101.65 370.46 104.42C372.3 106.45 374.87 107.55 377.45 108.29C381.49 109.58 386.28 110.69 389.4 113.83C391.98 116.41 393.82 119.91 394.55 123.42C395.11 126.37 395.11 129.69 393.64 132.46C392.35 134.67 390.14 135.97 388.12 137.26L384.44 139.29C382.05 140.76 379.65 142.24 378 144.64C376.53 146.67 375.61 149.06 375.24 151.46C374.69 154.23 374.87 157 375.42 159.58C375.79 161.24 376.71 162.9 377.63 164.38C379.47 166.96 382.23 169.17 384.07 171.94C384.81 172.86 385.36 173.97 385.72 175.08C386.09 176.18 386.28 177.48 386.46 178.58C386.83 182.46 386.09 186.33 385.36 190.02C383.33 198.51 379.84 206.99 376.34 214.74C375.61 216.77 374.69 218.8 374.69 220.83C374.5 223.41 375.24 226 376.34 228.21C377.45 230.42 378.92 232.45 381.13 233.56C382.6 234.3 384.62 234.67 386.28 235.04C387.38 235.22 388.48 235.59 389.4 236.33C389.96 236.7 390.32 237.25 390.69 237.8C391.43 238.91 392.35 241.13 392.9 242.42C393.64 243.89 394.37 245.37 395.47 246.48C396.21 247.21 397.31 247.77 398.23 248.14C399.89 248.69 401.73 248.69 403.57 248.32C405.41 247.95 407.06 247.21 408.53 245.92C410.01 244.45 410.93 242.42 411.29 240.39C412.4 235.59 412.21 229.87 414.24 225.26C415.34 222.86 416.81 220.83 418.47 218.99C420.49 216.59 423.07 214 424.72 211.24C425.46 210.13 425.82 208.84 426.19 207.55C426.74 205.33 427.11 202.75 427.85 200.72C428.22 199.43 428.95 198.32 430.06 197.4C430.97 196.66 432.08 196.48 433.18 196.29C434.65 196.11 436.31 196.48 437.78 197.22C438.89 197.77 439.81 198.69 440.36 199.8C440.72 200.72 440.91 201.64 441.09 202.75C441.28 206.07 440.17 209.39 439.25 212.53C437.97 216.59 435.76 222.68 435.39 226.92C435.39 228.03 435.21 229.13 435.57 230.24C435.76 230.98 436.31 231.53 436.86 232.08C437.6 232.64 438.33 233.01 439.25 233.19C440.91 233.56 442.75 233.38 444.4 233.01C446.98 232.45 449.37 231.35 451.39 229.69C454.15 227.47 455.99 224.52 457.46 221.38C459.49 216.96 460.59 212.34 461.69 207.55C463.35 199.43 465.01 188.73 466.84 180.8C467.76 176.55 469.05 172.49 470.71 168.44C472.36 164.93 474.39 161.24 477.7 159.03C479.35 157.92 481.19 157.37 483.03 157C485.24 156.44 488.18 155.89 490.39 154.97C491.86 154.41 493.15 153.68 494.25 152.57C496.64 150.54 498.48 147.77 499.95 145C502.35 140.58 504 135.6 505.1 130.8C506.02 126.93 506.39 122.87 506.02 118.99C505.84 116.04 505.29 112.9 505.29 109.95C505.29 108.11 505.66 106.26 506.39 104.42C507.13 102.39 508.23 100.36 509.7 98.88C510.62 97.78 511.91 96.85 513.38 96.3C515.77 95.38 518.35 95.56 520.92 96.11C527.18 97.59 533.43 100.91 539.69 102.39C541.89 102.94 544.1 103.31 546.31 103.13C547.96 103.13 549.62 102.57 550.91 101.83C552.75 100.73 554.59 99.07 556.43 97.96C557.53 97.22 558.82 96.85 560.1 96.67C561.21 96.48 562.13 96.48 563.23 96.67C565.07 96.85 567.65 97.41 569.67 97.78C570.96 97.96 572.43 98.14 573.71 98.14C574.45 98.14 575.37 97.96 576.11 97.78C576.84 97.41 577.58 96.85 578.13 96.11C579.6 94.45 580.52 91.69 581.63 89.66C582.36 88.18 583.1 86.71 584.38 85.41C585.67 84.12 587.14 83.2 588.61 82.46C591.37 80.99 594.87 79.69 596.16 76.74C596.71 75.45 597.08 73.98 596.89 72.5C596.89 70.84 596.52 69.36 595.79 67.89C595.24 66.78 594.68 65.86 593.77 65.12C592.66 64.01 591.37 63.28 589.9 62.54C587.14 61.25 584.02 60.14 582.36 57.56C580.71 55.16 579.78 51.84 578.5 49.07C577.76 47.41 576.84 45.93 575.56 44.83C572.61 41.69 568.2 39.66 565.07 36.71C564.15 35.79 563.23 34.68 562.68 33.57C561.21 30.44 561.21 26.56 560.47 23.24C560.1 21.76 559.74 20.47 559 19.18C558.08 17.34 556.79 15.68 555.32 14.39C553.3 12.36 550.91 10.7 548.52 9.22C545.94 7.74 543.18 6.45 540.42 5.53" stroke="#F1F6FF" stroke-opacity="1.000000" stroke-width="1.500000" stroke-linejoin="round" stroke-linecap="round"/>
			<path id="Vector" d="M642.51 118.81C641.77 119.55 640.85 120.28 639.75 120.84C638.65 121.39 637.36 121.76 636.26 122.13C633.5 122.68 630.74 122.68 627.98 122.68" stroke="#F1F6FF" stroke-opacity="1.000000" stroke-width="2.250000" stroke-linejoin="round" stroke-linecap="round"/>
			<path id="Vector" d="M527.55 11.8C531.04 9.4 534.72 7.19 538.77 5.71C542.45 4.42 546.31 3.5 550.17 3.13C556.24 2.58 562.5 2.58 568.38 4.05C570.96 4.79 573.53 5.71 575.92 7.37C577.95 8.85 579.79 10.88 581.26 12.72C582.36 14.2 584.75 17.15 586.04 18.63C586.96 19.74 588.06 20.84 589.17 21.95L595.05 27.48C597.08 29.51 599.1 31.73 600.76 34.13C602.04 36.16 602.96 38.37 603.7 40.77C604.62 43.53 605.54 47.04 606.83 49.62C607.75 51.84 609.03 54.05 610.32 56.08C613.08 60.32 616.39 64.38 619.52 68.26C623.75 73.24 629.27 79.7 633.68 84.49C636.44 87.44 639.57 90.4 642.88 92.61C644.9 93.9 647.48 95.19 648.58 97.41" stroke="#F1F6FF" stroke-opacity="1.000000" stroke-width="2.250000" stroke-linejoin="round" stroke-linecap="round"/>
			<path id="Vector" d="M628.71 104.79C629.08 103.68 629.45 102.39 630.19 101.47C630.56 100.91 631.11 100.36 631.84 100.17C632.76 99.8 633.87 99.8 634.97 99.8C636.44 99.99 637.91 100.17 639.2 100.91C639.94 101.28 640.49 101.65 640.86 102.2C641.04 102.57 641.22 102.94 641.22 103.49C641.22 104.42 640.86 105.34 640.67 106.08L640.67 106.26" stroke="#F1F6FF" stroke-opacity="1.000000" stroke-width="2.250000" stroke-linejoin="round" stroke-linecap="round"/>
			<path id="Vector" d="M630.37 117.7C628.53 117.52 626.88 117.15 625.4 116.04C624.48 115.3 623.56 114.38 623.01 113.27C622.09 111.61 621.54 109.58 621.54 107.55C621.36 105.34 621.72 103.13 622.64 101.1C623.2 99.8 623.93 98.33 625.04 97.41C627.06 95.75 629.82 95.93 632.39 96.11C634.23 96.3 636.81 96.85 638.65 96.85C640.3 96.85 643.06 96.85 644.72 96.67C645.64 96.67 646.56 96.67 647.48 96.85C648.03 96.85 648.4 97.04 648.95 97.41C649.5 97.78 649.87 98.51 650.24 99.07C650.42 99.8 650.42 100.36 650.42 101.1C650.42 102.2 650.24 103.31 650.24 104.42C649.68 107.92 648.77 111.43 647.11 114.75C646.37 116.22 645.45 117.52 643.98 118.25C643.25 118.62 642.33 118.81 641.41 118.99C638.83 119.18 636.07 118.44 633.68 118.07C633.31 118.07 630.74 117.7 630.37 117.7Z" stroke="#F1F6FF" stroke-opacity="1.000000" stroke-width="2.250000" stroke-linejoin="round"/>
			<path id="Vector" d="M51.87 82.28C46.35 88 41.01 94.09 36.97 100.91C33.84 106.08 31.63 111.61 30.53 117.52C29.61 122.31 29.79 127.11 30.35 131.91C31.08 138.18 32.19 144.82 33.66 150.91C34.94 155.89 36.42 161.06 38.26 165.85C40.09 171.02 43.41 178.4 45.43 183.56C46.16 185.59 46.9 187.81 47.45 189.84C47.82 191.87 48.19 194.08 48.19 196.29C48.37 198.88 48.37 202.38 48.74 204.78C49.11 207.92 49.84 211.05 50.58 214C52.05 219.54 54.63 225.63 55.36 231.16C56.1 236.7 54.99 242.23 53.71 247.77C51.5 256.99 49.29 266.77 45.61 275.62C43.59 280.42 40.28 285.77 37.52 290.2C35.5 293.34 33.84 296.84 32.74 300.35C31.63 303.85 31.08 307.73 31.63 311.42C32 313.81 32.92 317.69 33.47 320.27C34.02 322.49 34.39 324.88 34.76 327.28C36.23 339.83 34.21 352.56 31.27 364.55L25.01 389.27C24.46 391.49 23.91 393.88 24.09 396.28C24.28 397.57 24.64 398.86 25.2 399.97C25.75 401.08 26.48 402 27.59 402.74C28.14 403.11 28.87 403.48 29.61 403.66C30.71 403.85 31.82 403.85 32.92 404.21C34.02 404.77 34.76 405.69 35.5 406.8C38.62 412.52 39.73 420.45 42.12 426.54C42.67 427.83 43.41 429.31 44.88 430.04C45.61 430.41 46.53 430.41 47.27 430.41C51.13 430.41 68.79 430.6 72.29 430.23C73.02 430.23 73.76 430.04 74.49 429.67C75.23 429.31 75.78 428.75 76.15 428.01C76.7 426.91 76.88 425.43 76.88 424.32C76.88 422.48 76.52 420.63 75.78 418.97C75.04 417.5 73.94 416.39 72.84 415.47C71.55 414.36 68.97 412.7 67.5 411.78C64.74 409.75 61.98 407.72 59.78 405.14C58.49 403.48 57.39 401.63 56.47 399.79C55.73 398.13 54.99 396.28 54.63 394.44C54.07 392.59 53.89 390.56 53.52 388.72C52.6 380.42 52.42 371.74 52.6 363.63C52.79 357.35 53.16 351.08 54.44 344.81C55.91 338.35 58.49 332.08 60.88 325.99C62.9 321.38 66.58 312.89 68.61 308.28C70.26 304.77 72.1 301.27 74.31 297.95C77.44 293.34 81.67 289.46 86.08 286.14C93.62 280.42 102.45 274.52 109.26 268.06C119.19 259.02 126.92 247.77 133.72 236.14C138.87 227.1 143.66 217.88 147.15 208.1C151.01 197.4 153.4 186.15 154.88 174.89" stroke="#F1F6FF" stroke-opacity="1.000000" stroke-width="2.250000" stroke-linejoin="round" stroke-linecap="round"/>
			<path id="Vector" d="M88.47 284.29C90.31 286.14 92.52 288.17 94.73 289.46C97.12 291.12 100.61 292.97 103 294.63C104.47 295.55 105.76 296.66 106.5 298.32C106.68 298.87 106.87 299.61 107.05 300.16C107.6 303.48 107.6 307.54 108.52 310.86C108.89 312.34 109.44 314 110.55 315.29C111.28 316.03 112.57 316.58 113.49 316.03C114.22 315.66 114.78 314.74 114.96 314C116.06 311.05 116.25 307.54 117.17 304.41C117.35 303.67 117.54 303.11 118.09 302.56C118.27 302.19 118.64 301.82 119.19 301.64C119.74 301.45 120.29 301.27 120.85 301.27C121.58 301.27 122.32 301.27 123.05 301.45C124.71 301.64 126.73 302.01 128.39 302.19C130.04 302.38 131.7 302.19 133.35 302.01C134.83 301.82 137.22 301.45 138.69 301.64C139.06 301.64 139.42 301.64 139.61 301.82C139.79 301.82 140.16 302.01 140.34 302.19C140.53 302.38 140.71 302.75 140.89 303.11C141.08 303.67 141.26 304.04 141.45 304.59C142.18 307.73 142.92 311.42 144.21 314.18C144.76 315.1 145.31 316.21 146.41 316.77C146.78 316.95 147.33 316.95 147.7 316.77C148.62 316.4 148.99 315.66 149.36 314.74C150.83 311.42 151.01 307.36 151.93 304.04C152.3 303.11 152.48 302.19 153.04 301.27C153.4 300.72 153.96 300.16 154.69 299.79C155.06 299.61 155.43 299.42 155.61 299.24C157.08 298.5 159.29 297.39 160.76 296.66C167.75 292.97 173.82 287.62 179.34 282.08C181.18 280.24 183.2 278.21 184.86 276.18C185.96 275.07 187.07 273.23 188.17 272.12C189.09 271.2 190.01 270.46 191.48 270.09C192.4 269.91 193.32 269.91 194.42 270.09C196.08 270.27 197.55 270.64 199.21 271.2C209.14 274.33 219.62 279.68 229.56 282.64C233.6 283.93 237.83 284.85 242.06 284.85C248.14 285.03 254.02 283.19 259.72 280.98" stroke="#F1F6FF" stroke-opacity="1.000000" stroke-width="2.250000" stroke-linejoin="round" stroke-linecap="round"/>
			<path id="Vector" d="M39.54 416.94C49.29 417.13 59.22 415.65 68.24 411.96" stroke="#F1F6FF" stroke-opacity="1.000000" stroke-width="2.250000" stroke-linejoin="round" stroke-linecap="round"/>
			<path id="Vector" d="M512.09 101.28C513.57 103.13 514.85 105.16 516.51 107C517.8 108.29 519.09 109.4 520.56 110.51C523.32 112.35 526.63 113.83 529.75 114.93C534.72 116.59 540.05 117.7 545.2 118.44C556.43 120.1 568.75 118.62 579.97 119.36C590.64 120.1 601.31 122.68 611.61 125.63C614.55 126.37 617.49 127.11 620.44 126.56C623.2 126 625.77 124.53 627.98 122.68" stroke="#F1F6FF" stroke-opacity="1.000000" stroke-width="2.250000" stroke-linejoin="round" stroke-linecap="round"/>
			<path id="Vector" d="M368.62 206.81C367.52 215.85 366.78 225.26 367.7 234.3C368.07 238.54 368.8 242.6 370.46 246.66C371.38 248.87 372.48 251.09 373.95 252.93C375.06 254.41 376.34 256.25 377.45 257.91C378.18 259.02 378.74 260.31 379.1 261.6C379.66 264 379.47 266.77 379.47 269.17C378.74 279.31 377.26 290.38 378.18 300.53C378.37 302.56 378.55 304.59 378.92 306.62C379.47 309.39 380.76 314.18 381.49 316.77C381.86 318.43 382.41 320.27 382.6 322.12C382.78 323.78 382.78 325.44 382.97 326.91C382.97 330.23 382.78 333.92 383.52 337.06C384.25 340.2 385.17 343.52 385.54 346.84C386.09 351.27 386.09 355.69 386.09 360.12C385.91 372.3 384.62 384.66 382.23 396.65C381.86 399.05 380.39 404.95 380.21 407.17C380.21 407.9 380.02 408.64 380.02 409.2C380.02 409.93 380.21 410.86 380.76 411.59C380.94 412.15 381.31 412.52 381.68 412.89C382.05 413.25 382.41 413.62 382.78 413.99C383.15 414.36 383.7 414.55 384.07 414.73C384.62 414.92 385.17 414.92 385.73 414.73C387.2 414.55 389.04 413.99 390.51 413.62C390.69 413.62 391.06 413.44 391.24 413.44C391.61 413.44 392.16 413.44 392.53 413.81C392.9 414.18 393.27 414.55 393.45 415.1C393.82 415.84 394 416.58 394.37 417.31C395.29 420.27 396.39 423.77 397.68 426.54C398.23 427.65 398.97 429.12 400.26 429.67C400.99 430.04 402.1 430.04 402.83 430.23L426.93 430.23C427.11 430.23 427.3 430.23 427.48 430.23C427.85 430.23 428.03 430.23 428.4 430.04C428.77 429.86 428.95 429.49 429.14 429.12C429.5 428.2 429.69 427.09 429.87 426.17C430.06 424.51 430.06 422.66 429.87 421C429.69 420.08 429.5 419.16 428.95 418.24C428.4 417.13 427.66 416.21 426.93 415.47C424.35 412.89 421.23 410.49 418.1 408.46C416.44 407.35 413.87 405.69 412.4 404.58C411.29 403.66 410.01 402.55 409.27 401.26C408.35 399.97 407.98 398.31 407.61 396.84C406.33 391.67 405.96 385.95 405.41 380.6C404.49 368.05 403.94 354.96 405.59 342.41C405.96 339.64 406.7 336.88 407.43 334.11C408.17 331.89 409.45 329.13 410.01 326.91C410.93 324.15 411.48 321.38 411.85 318.43C412.95 311.05 414.42 300.72 416.26 293.7C418.28 285.96 420.49 278.02 424.17 271.01C425.27 269.17 426.38 267.14 427.66 265.48C429.87 262.71 432.81 259.39 434.84 256.44C439.25 250.53 442.56 243.89 445.32 237.07" stroke="#F1F6FF" stroke-opacity="1.000000" stroke-width="2.250000" stroke-linejoin="round" stroke-linecap="round"/>
			<path id="Vector" d="M393.82 417.13C397.68 416.58 401.36 415.65 405.04 413.99C408.9 412.33 412.58 409.93 415.71 407.17" stroke="#F1F6FF" stroke-opacity="1.000000" stroke-width="2.250000" stroke-linejoin="round" stroke-linecap="round"/>
			<path id="Vector" d="M136.3 231.9C146.05 230.24 156.35 229.5 165.91 232.27C170.14 233.56 174.19 235.41 178.05 237.62C187.43 243.15 199.02 253.49 207.67 260.5C213.55 265.29 219.81 269.72 226.61 273.23C231.21 275.44 235.99 277.29 240.96 278.39C253.65 281.34 267.08 280.61 279.96 278.58C297.62 275.62 318.95 268.43 336.61 266.03C342.13 265.29 347.83 265.11 353.35 265.66C361.44 266.22 371.01 268.61 379.1 270.27" stroke="#F1F6FF" stroke-opacity="1.000000" stroke-width="2.250000" stroke-linejoin="round" stroke-linecap="round"/>
			<path id="Vector" d="M421.41 276.18C425.46 275.99 429.69 275.62 433.55 274.15C436.31 273.04 438.89 271.2 441.09 268.98C443.67 266.4 446.61 261.79 448.82 258.65C449.92 256.99 451.21 255.33 452.68 253.67C453.97 252.19 456.36 249.98 457.65 248.69C460.22 246.11 462.61 243.34 464.45 240.2C467.58 234.85 469.6 228.95 471.63 223.04C473.28 217.88 477.51 204.04 479.54 199.06C480.09 197.59 480.82 196.11 481.38 194.82C483.03 191.5 485.97 188.55 488.37 185.78C490.94 182.64 493.88 178.77 496.46 175.45C501.06 169.17 524.97 136.52 528.83 130.8C531.78 126.37 534.72 121.76 537.11 116.96" stroke="#F1F6FF" stroke-opacity="1.000000" stroke-width="2.250000" stroke-linejoin="round" stroke-linecap="round"/>
			<path id="Vector" d="M530.31 48.89C527.91 48.52 525.52 47.41 523.31 46.3C521.48 45.2 519.64 44.09 518.35 42.43C517.8 41.87 517.43 41.14 517.06 40.4C516.69 39.66 516.51 38.74 516.51 37.82L516.33 35.42C515.96 32.65 515.04 30.25 513.93 27.67C512.65 24.72 510.62 20.84 509.52 17.89C508.97 16.41 508.42 14.94 508.05 13.46C507.86 12.36 507.68 11.25 508.05 10.14C508.23 9.59 508.78 9.04 509.34 8.67C510.07 8.11 511.18 7.74 512.09 7.74C513.75 7.56 515.22 7.56 516.88 7.93C519.64 8.3 522.39 9.22 524.97 10.51C528.1 11.99 530.86 14.02 533.62 16.05C535.09 17.15 538.21 19.92 539.69 21.21C540.97 22.32 543.55 24.53 544.84 25.82C546.68 27.67 548.52 29.51 549.43 32.1C550.35 34.68 550.17 37.45 549.62 40.21" stroke="#F1F6FF" stroke-opacity="1.000000" stroke-width="2.250000" stroke-linejoin="round" stroke-linecap="round"/>
			<path id="Vector" d="M30.16 129.32C28.14 142.61 26.3 156.81 25.75 170.1C24.83 191.68 24.83 214.56 25.93 236.14C26.3 241.68 26.67 247.77 27.4 253.12C27.77 256.62 29.06 264.74 29.06 268.25C29.24 271.01 29.06 273.96 28.32 276.73C27.59 279.87 26.48 283.93 25.75 287.06C25.38 289.28 25.01 291.49 25.01 293.89C25.01 300.53 26.67 307.73 26.48 314.37C26.48 316.4 26.12 318.43 25.38 320.27C24.28 323.41 22.44 326.73 20.96 329.68C20.23 331.34 19.49 333.19 19.12 334.85C18.57 337.24 18.2 339.64 18.02 342.04C17.84 344.62 17.65 348.87 17.1 351.27C16.92 351.64 16.92 352 16.73 352.37C16.37 352.19 16 352 15.81 351.64C15.08 350.71 14.53 349.42 13.97 348.31C11.95 343.15 11.77 337.06 10.48 331.71C10.3 331.16 10.11 330.42 9.74 329.87C9.56 329.68 9.19 329.87 9.01 329.87C8.64 330.05 8.27 330.05 7.72 330.05C7.17 329.68 6.8 329.13 6.43 328.39C5.7 326.91 5.15 325.07 4.78 323.41C4.04 319.9 4.04 316.4 4.41 312.89C4.96 309.2 6.07 305.51 7.17 302.01C7.9 299.98 9.74 295.37 10.11 293.34C10.11 292.97 10.3 292.6 10.3 292.04C8.46 291.49 8.09 291.49 7.9 291.49C7.54 291.49 7.17 291.49 6.8 291.49C6.8 291.49 6.62 291.49 6.62 291.31C6.62 290.94 6.8 290.38 6.8 290.01C7.72 287.25 10.11 281.9 11.22 279.31C12.69 275.81 14.16 272.12 15.08 268.25C16 265.11 16.55 261.79 17.1 258.65C19.49 241.86 16.73 218.62 15.81 201.46L15.45 193.71C15.08 183.75 14.34 146.85 14.16 137.63C14.16 130.06 14.34 122.5 15.81 115.12C17.47 107 20.6 99.25 24.83 92.24C28.87 85.6 33.84 79.51 39.73 74.53C45.8 69.55 52.97 65.67 60.7 63.83C67.13 62.17 73.94 61.98 80.56 62.17C116.25 64.01 233.79 66.97 271.13 67.52C278.49 67.52 286.76 67.33 293.94 66.97C299.46 66.6 305.53 66.23 310.86 65.49C318.59 64.57 334.04 61.62 341.76 60.32C351.51 58.66 361.44 57.74 371.38 58.11C381.49 58.29 396.03 59.95 406.14 60.88L408.35 61.06L409.64 61.25L410.93 61.25L411.48 61.25L412.03 61.25L412.58 61.25C415.16 61.25 417.73 61.25 420.31 60.69C423.25 60.14 426.01 59.4 428.77 58.48C444.04 53.68 467.21 44.27 482.3 38.92C487.63 37.08 495.54 34.68 500.51 32.1C504.74 29.88 508.6 26.93 512.28 23.98" stroke="#F1F6FF" stroke-opacity="1.000000" stroke-width="2.250000" stroke-linejoin="round" stroke-linecap="round"/>
		</g>
	</g>
</svg>
