<svg width="50.635742" height="47.608276" viewBox="0 0 50.6357 47.6083" fill="none" xmlns="http://www.w3.org/2000/svg" xmlns:xlink="http://www.w3.org/1999/xlink">
	<desc>
			Created with Pixso.
	</desc>
	<defs/>
	<path id="Vector" d="M25.26 7.42C22.99 11.79 20.82 15.99 18.61 20.2C18.35 20.71 18.57 20.9 18.94 21.19C22.84 24.39 24.2 28.48 23.79 33.21C23.79 33.26 23.73 33.31 23.68 33.42C23.47 33.44 23.23 33.45 23.01 33.45C19.54 33.45 16.08 33.47 12.61 33.44C11.98 33.44 11.68 33.63 11.42 34.13C9.25 38.38 7.04 42.6 4.86 46.86C4.58 47.42 4.25 47.63 3.6 47.59C2.47 47.54 1.31 47.57 0 47.57C0.66 46.31 1.28 45.12 1.91 43.94C4.1 39.82 6.29 35.71 8.47 31.59C8.74 31.05 9.06 30.85 9.73 30.85C13.95 30.88 18.14 30.86 22.36 30.86C22.69 30.86 23.03 30.86 23.47 30.86C23.05 25.42 20.26 21.63 15.02 19.32C18.42 12.93 21.8 6.59 25.29 0C33.78 15.94 42.16 31.71 50.63 47.59C49.16 47.59 47.88 47.63 46.58 47.57C46.32 47.56 45.97 47.31 45.86 47.07C41.66 38.98 37.46 30.9 33.28 22.81C30.76 17.92 28.21 13.04 25.68 8.13C25.57 7.94 25.44 7.75 25.26 7.42Z" fill="#FFFFFF" fill-opacity="1.000000" fill-rule="nonzero"/>
</svg>
