<svg width="25.143066" height="15.841736" viewBox="0 0 25.1431 15.8417" fill="none" xmlns="http://www.w3.org/2000/svg" xmlns:xlink="http://www.w3.org/1999/xlink">
	<desc>
			Created with Pixso.
	</desc>
	<defs/>
	<path id="rect19" d="M9.15 1.69L15.96 1.69L15.96 14.14L9.15 14.14L9.15 1.69Z" fill="#FF5A00" fill-opacity="1.000000" fill-rule="evenodd"/>
	<path id="XMLID_330_" d="M9.61 7.92C9.61 5.39 10.77 3.14 12.57 1.69C11.25 0.63 9.58 0 7.77 0C3.47 0 0 3.54 0 7.92C0 12.29 3.47 15.84 7.77 15.84C9.58 15.84 11.25 15.2 12.57 14.14C10.77 12.71 9.61 10.45 9.61 7.92Z" fill="#EB001B" fill-opacity="1.000000" fill-rule="nonzero"/>
	<path id="path22" d="M25.14 7.92C25.14 12.29 21.66 15.84 17.36 15.84C15.55 15.84 13.88 15.2 12.57 14.14C14.38 12.69 15.53 10.45 15.53 7.92C15.53 5.39 14.36 3.14 12.57 1.69C13.88 0.63 15.55 0 17.36 0C21.66 0 25.14 3.56 25.14 7.92Z" fill="#F79E1B" fill-opacity="1.000000" fill-rule="nonzero"/>
</svg>
