<svg width="44.000000" height="12.802216" viewBox="0 0 44 12.8022" fill="none" xmlns="http://www.w3.org/2000/svg" xmlns:xlink="http://www.w3.org/1999/xlink">
	<desc>
			Created with Pixso.
	</desc>
	<defs>
		<linearGradient x1="1314.549683" y1="332.719116" x2="31.166016" y2="332.719116" id="paint_linear_419_108_0" gradientUnits="userSpaceOnUse">
			<stop stop-color="#1F5CD7"/>
			<stop offset="1.000000" stop-color="#02AEFF"/>
		</linearGradient>
	</defs>
	<path id="Combined-Shape" d="M4.06 0C4.46 -0.01 5.63 -0.12 6.12 1.66C6.45 2.86 6.98 4.83 7.71 7.56L8.01 7.56C8.79 4.68 9.33 2.72 9.62 1.66C10.12 -0.14 11.37 0 11.87 0L15.73 0L15.73 12.8L11.8 12.8L11.8 5.25L11.53 5.25L9.34 12.8L6.38 12.8L4.19 5.25L3.93 5.25L3.93 12.8L0 12.8L0 0L4.06 0ZM21.37 0L21.37 7.55L21.69 7.55L24.35 1.34C24.87 0.1 25.97 0 25.97 0L29.78 0L29.78 12.8L25.77 12.8L25.77 5.25L25.45 5.25L22.84 11.46C22.32 12.69 21.16 12.8 21.16 12.8L17.36 12.8L17.36 0L21.37 0ZM43.65 6.08C43.09 7.77 41.33 8.98 39.39 8.98L35.18 8.98L35.18 12.8L31.36 12.8L31.36 6.08L43.65 6.08Z" fill="#0F754E" fill-opacity="1.000000" fill-rule="evenodd"/>
	<path id="path24" d="M39.57 0L31.16 0C31.36 2.85 33.66 5.29 36.04 5.29L43.92 5.29C44.37 2.92 42.81 0 39.57 0Z" fill="url(#paint_linear_419_108_0)" fill-opacity="1.000000" fill-rule="evenodd"/>
</svg>
