<svg width="2056.000000" height="717.000000" viewBox="0 0 2056 717" fill="none" xmlns="http://www.w3.org/2000/svg" xmlns:xlink="http://www.w3.org/1999/xlink">
	<desc>
			Created with Pixso.
	</desc>
	<defs>
		<clipPath id="clip358_452">
			<rect id="Frame" width="2056.000000" height="717.000000" fill="white" fill-opacity="0"/>
		</clipPath>
	</defs>
	<g opacity="0.100000">
		<rect id="Frame" width="2056.000000" height="717.000000" fill="#FFFFFF" fill-opacity="0"/>
		<g clip-path="url(#clip358_452)">
			<path id="Vector" d="M1027.76 690.35L20.82 693.74" stroke="#F1F6FF" stroke-opacity="1.000000" stroke-width="2.000000" stroke-linejoin="round" stroke-linecap="round"/>
			<path id="Vector" d="M1019.52 690.83L1019.52 26.16" stroke="#F1F6FF" stroke-opacity="1.000000" stroke-width="2.000000" stroke-linejoin="round" stroke-linecap="round"/>
			<path id="Vector" d="M427.66 692.29L427.66 208.8" stroke="#F1F6FF" stroke-opacity="1.000000" stroke-width="2.000000" stroke-linejoin="round" stroke-linecap="round"/>
			<path id="Vector" d="M444.13 692.29L444.13 192.33" stroke="#F1F6FF" stroke-opacity="1.000000" stroke-width="2.000000" stroke-linejoin="round" stroke-linecap="round"/>
			<path id="Vector" d="M452.85 189.9L1019.52 680.66" stroke="#F1F6FF" stroke-opacity="1.000000" stroke-width="2.000000" stroke-linejoin="round" stroke-linecap="round"/>
			<path id="Vector" d="M444.13 204.44L1005.48 690.83" stroke="#F1F6FF" stroke-opacity="1.000000" stroke-width="2.000000" stroke-linejoin="round" stroke-linecap="round"/>
			<path id="Vector" d="M1027.76 690.35L2035.17 693.74" stroke="#F1F6FF" stroke-opacity="1.000000" stroke-width="2.000000" stroke-linejoin="round" stroke-linecap="round"/>
			<path id="Vector" d="M1036.48 690.83L1036.48 26.16" stroke="#F1F6FF" stroke-opacity="1.000000" stroke-width="2.000000" stroke-linejoin="round" stroke-linecap="round"/>
			<path id="Vector" d="M1628.33 692.29L1628.33 208.8" stroke="#F1F6FF" stroke-opacity="1.000000" stroke-width="2.000000" stroke-linejoin="round" stroke-linecap="round"/>
			<path id="Vector" d="M1611.38 692.29L1611.38 192.33" stroke="#F1F6FF" stroke-opacity="1.000000" stroke-width="2.000000" stroke-linejoin="round" stroke-linecap="round"/>
			<path id="Vector" d="M1602.66 189.9L1036.48 680.66" stroke="#F1F6FF" stroke-opacity="1.000000" stroke-width="2.000000" stroke-linejoin="round" stroke-linecap="round"/>
			<path id="Vector" d="M1611.38 204.44L1050.04 690.83" stroke="#F1F6FF" stroke-opacity="1.000000" stroke-width="2.000000" stroke-linejoin="round" stroke-linecap="round"/>
			<path id="Vector" d="M431.54 178.76L6.78 684.54L6.78 710.21C515.81 707.31 1540.18 707.31 2049.22 710.21L2049.22 684.54L1624.46 178.76" stroke="#F1F6FF" stroke-opacity="1.000000" stroke-width="2.000000" stroke-linejoin="round" stroke-linecap="round"/>
			<path id="Vector" d="M6.78 710.7L440.74 193.29L1027.76 23.73L1027.76 6.78L431.54 178.76L440.74 193.29" stroke="#F1F6FF" stroke-opacity="1.000000" stroke-width="2.000000" stroke-linejoin="round"/>
			<path id="Vector" d="M2049.22 710.7L1615.26 193.29L1027.76 23.73L1027.76 6.78L1624.46 178.76L1615.26 193.29" stroke="#F1F6FF" stroke-opacity="1.000000" stroke-width="2.000000" stroke-linejoin="round"/>
			<path id="Vector" d="M6.78 684.54L6.78 710.21C515.81 707.31 1540.18 707.31 2049.22 710.21L2049.22 684.54L1624.46 178.76L1027.76 6.78L431.54 178.76L6.78 684.54Z" stroke="#F1F6FF" stroke-opacity="1.000000" stroke-width="2.750000" stroke-linejoin="round"/>
		</g>
	</g>
</svg>
