<svg width="26.457031" height="23.244186" viewBox="0 0 26.457 23.2442" fill="none" xmlns="http://www.w3.org/2000/svg" xmlns:xlink="http://www.w3.org/1999/xlink">
	<desc>
			Created with Pixso.
	</desc>
	<defs/>
	<path id="Vector" d="M22.43 21.72L22.43 21.71L22.45 21.66L26.45 1.5L26.45 1.43C26.45 0.93 26.26 0.49 25.86 0.23C25.51 0 25.1 -0.02 24.82 0C24.55 0.03 24.29 0.08 24.04 0.16C23.93 0.2 23.82 0.24 23.72 0.28L23.7 0.29L1.41 9.03L1.4 9.03C1.33 9.06 1.26 9.08 1.2 9.12C1.04 9.19 0.89 9.27 0.75 9.37C0.46 9.57 -0.09 10.03 0 10.77C0.08 11.38 0.5 11.76 0.79 11.96C0.95 12.08 1.13 12.18 1.32 12.26L1.37 12.28L1.38 12.28L1.39 12.28L5.29 13.6C5.28 13.84 5.3 14.09 5.37 14.34L7.32 21.75C7.42 22.15 7.66 22.51 7.98 22.78C8.3 23.05 8.7 23.21 9.11 23.23C9.53 23.26 9.95 23.16 10.3 22.94C10.66 22.72 10.94 22.4 11.1 22.01L14.15 18.75L19.39 22.77L19.46 22.8C19.94 23.01 20.38 23.07 20.79 23.02C21.19 22.96 21.52 22.79 21.76 22.6C22.04 22.37 22.26 22.08 22.41 21.75L22.42 21.73L22.43 21.72L22.43 21.72ZM7.3 13.83C7.28 13.75 7.28 13.66 7.31 13.58C7.34 13.5 7.4 13.43 7.47 13.39L20.7 4.99C20.7 4.99 21.48 4.52 21.45 4.99C21.45 4.99 21.59 5.07 21.17 5.46C20.78 5.83 11.74 14.55 10.83 15.43C10.78 15.48 10.74 15.54 10.73 15.61L9.25 21.24L7.3 13.83L7.3 13.83Z" fill="#0060FE" fill-opacity="1.000000" fill-rule="evenodd"/>
</svg>
