<svg width="25.064453" height="27.296577" viewBox="0 0 25.0645 27.2966" fill="none" xmlns="http://www.w3.org/2000/svg" xmlns:xlink="http://www.w3.org/1999/xlink">
	<desc>
			Created with Pixso.
	</desc>
	<defs/>
	<path id="Vector" d="M18.9 0.7C14.7 -0.24 10.35 -0.24 6.16 0.7L5.7 0.8C4.52 1.06 3.44 1.65 2.57 2.49C1.71 3.33 1.09 4.4 0.79 5.57C-0.27 9.76 -0.27 14.15 0.79 18.34C1.08 19.46 1.65 20.48 2.46 21.31C3.26 22.13 4.27 22.73 5.38 23.03L6 26.74C6.02 26.85 6.08 26.96 6.15 27.05C6.23 27.15 6.33 27.21 6.44 27.25C6.55 27.29 6.67 27.3 6.79 27.28C6.91 27.26 7.02 27.2 7.11 27.12L10.75 23.86C13.48 24.03 16.22 23.81 18.9 23.22L19.35 23.12C20.53 22.85 21.61 22.27 22.48 21.42C23.35 20.58 23.96 19.51 24.26 18.34C25.33 14.15 25.33 9.76 24.26 5.57C23.96 4.4 23.35 3.33 22.48 2.49C21.61 1.65 20.53 1.06 19.35 0.8L18.9 0.7ZM7.28 5.46C7.03 5.43 6.78 5.48 6.57 5.6L6.55 5.6C6.05 5.9 5.6 6.27 5.21 6.7C4.89 7.07 4.72 7.44 4.67 7.8C4.65 8.02 4.66 8.23 4.73 8.44L4.75 8.45C5.11 9.51 5.58 10.53 6.16 11.48C6.9 12.83 7.8 14.07 8.86 15.18L8.89 15.23L8.94 15.27L8.98 15.3L9.01 15.33C10.13 16.4 11.37 17.31 12.72 18.05C14.26 18.89 15.2 19.29 15.76 19.45L15.76 19.46C15.92 19.51 16.07 19.54 16.22 19.54C16.7 19.5 17.15 19.31 17.51 18.98C17.94 18.6 18.31 18.15 18.59 17.64L18.59 17.64C18.86 17.13 18.77 16.65 18.38 16.33C17.61 15.65 16.77 15.05 15.88 14.53C15.28 14.2 14.67 14.4 14.43 14.73L13.9 15.39C13.63 15.72 13.15 15.67 13.15 15.67L13.13 15.68C9.49 14.75 8.52 11.06 8.52 11.06C8.52 11.06 8.47 10.56 8.81 10.31L9.47 9.78C9.78 9.52 10 8.92 9.66 8.32C9.15 7.43 8.55 6.59 7.87 5.81C7.72 5.63 7.51 5.51 7.28 5.46L7.28 5.46ZM13.43 3.86C13.26 3.86 13.09 3.93 12.96 4.06C12.84 4.18 12.77 4.35 12.77 4.53C12.77 4.7 12.84 4.87 12.96 5C13.09 5.12 13.26 5.19 13.43 5.19C15.12 5.19 16.52 5.74 17.63 6.8C18.2 7.38 18.64 8.06 18.93 8.81C19.23 9.56 19.36 10.36 19.32 11.17C19.32 11.25 19.33 11.34 19.36 11.42C19.39 11.51 19.44 11.58 19.5 11.65C19.62 11.78 19.78 11.85 19.96 11.86C20.14 11.87 20.31 11.81 20.44 11.69C20.57 11.57 20.65 11.4 20.66 11.22C20.7 10.23 20.53 9.25 20.17 8.33C19.82 7.4 19.27 6.56 18.57 5.86L18.56 5.84C17.18 4.53 15.44 3.86 13.43 3.86ZM13.39 6.05C13.21 6.05 13.04 6.12 12.92 6.25C12.79 6.37 12.72 6.54 12.72 6.72C12.72 6.9 12.79 7.07 12.92 7.19C13.04 7.32 13.21 7.39 13.39 7.39L13.41 7.39C14.63 7.47 15.51 7.88 16.13 8.54C16.77 9.23 17.1 10.08 17.07 11.13C17.07 11.31 17.14 11.48 17.26 11.61C17.38 11.74 17.55 11.81 17.72 11.82C17.9 11.82 18.07 11.75 18.2 11.63C18.33 11.51 18.4 11.34 18.41 11.16C18.44 9.78 17.99 8.59 17.11 7.64L17.11 7.63C16.21 6.67 14.97 6.15 13.48 6.05L13.46 6.05L13.39 6.05ZM13.36 8.29C13.27 8.28 13.18 8.29 13.1 8.32C13.01 8.34 12.93 8.39 12.87 8.45C12.8 8.51 12.75 8.58 12.71 8.66C12.67 8.74 12.64 8.83 12.64 8.92C12.63 9.01 12.65 9.09 12.68 9.18C12.71 9.26 12.76 9.34 12.82 9.41C12.88 9.47 12.95 9.52 13.03 9.56C13.12 9.6 13.2 9.62 13.29 9.62C13.85 9.65 14.21 9.81 14.43 10.04C14.66 10.27 14.83 10.63 14.85 11.2C14.86 11.29 14.88 11.38 14.91 11.46C14.95 11.54 15 11.61 15.07 11.68C15.13 11.74 15.21 11.78 15.29 11.81C15.38 11.84 15.47 11.86 15.56 11.85C15.65 11.85 15.73 11.83 15.81 11.79C15.9 11.75 15.97 11.69 16.02 11.62C16.08 11.56 16.13 11.48 16.16 11.39C16.18 11.31 16.19 11.22 16.19 11.13C16.14 10.33 15.89 9.62 15.38 9.1C14.86 8.58 14.16 8.33 13.36 8.29Z" fill="#0060FE" fill-opacity="1.000000" fill-rule="evenodd"/>
</svg>
