<svg width="40.666504" height="13.189178" viewBox="0 0 40.6665 13.1892" fill="none" xmlns="http://www.w3.org/2000/svg" xmlns:xlink="http://www.w3.org/1999/xlink">
	<desc>
			Created with Pixso.
	</desc>
	<defs/>
	<path id="polygon9" d="M17.62 12.99L14.32 12.99L16.38 0.23L19.68 0.23L17.62 12.99Z" fill="#00579F" fill-opacity="1.000000" fill-rule="nonzero"/>
	<path id="path11" d="M29.56 0.54C28.91 0.28 27.88 0 26.6 0C23.35 0 21.06 1.73 21.05 4.22C21.02 6.05 22.69 7.07 23.93 7.68C25.21 8.31 25.64 8.72 25.64 9.27C25.63 10.13 24.61 10.52 23.66 10.52C22.35 10.52 21.64 10.32 20.57 9.84L20.14 9.64L19.68 12.5C20.45 12.86 21.87 13.17 23.35 13.18C26.81 13.18 29.06 11.47 29.08 8.82C29.1 7.37 28.22 6.26 26.32 5.35C25.17 4.76 24.46 4.37 24.46 3.77C24.48 3.23 25.06 2.67 26.36 2.67C27.43 2.64 28.22 2.9 28.81 3.16L29.11 3.3L29.56 0.54Z" fill="#00579F" fill-opacity="1.000000" fill-rule="nonzero"/>
	<path id="path13" d="M33.94 8.47C34.21 7.74 35.25 4.9 35.25 4.9C35.24 4.93 35.52 4.15 35.69 3.68L35.92 4.78C35.92 4.78 36.54 7.83 36.68 8.47C36.16 8.47 34.59 8.47 33.94 8.47ZM38 0.23L35.46 0.23C34.67 0.23 34.07 0.46 33.73 1.29L28.84 12.99L32.3 12.99C32.3 12.99 32.87 11.42 32.99 11.08C33.37 11.08 36.73 11.08 37.22 11.08C37.31 11.53 37.61 12.99 37.61 12.99L40.66 12.99L38 0.23Z" fill="#00579F" fill-opacity="1.000000" fill-rule="nonzero"/>
	<path id="path15" d="M11.57 0.23L8.35 8.93L7.99 7.17C7.4 5.13 5.53 2.92 3.44 1.82L6.39 12.98L9.88 12.98L15.05 0.23L11.57 0.23Z" fill="#00579F" fill-opacity="1.000000" fill-rule="nonzero"/>
	<path id="path17" d="M5.35 0.23L0.05 0.23L0 0.48C4.13 1.54 6.87 4.1 7.99 7.17L6.84 1.3C6.65 0.48 6.07 0.25 5.35 0.23Z" fill="#FAA61A" fill-opacity="1.000000" fill-rule="nonzero"/>
</svg>
