<svg width="878.000000" height="385.370819" viewBox="0 0 878 385.371" fill="none" xmlns="http://www.w3.org/2000/svg" xmlns:xlink="http://www.w3.org/1999/xlink">
	<desc>
			Created with Pixso.
	</desc>
	<defs>
		<clipPath id="clip431_1602">
			<rect id="Frame" width="878.000000" height="385.370819" fill="white" fill-opacity="0"/>
		</clipPath>
	</defs>
	<g opacity="0.200000">
		<g clip-path="url(#clip431_1602)">
			<path id="Vector" d="M876.12 2.49L876.12 14.13L2.24 14.13L2.24 2.49L876.12 2.49Z" stroke="#F1F6FF" stroke-opacity="1.000000" stroke-width="1.898378" stroke-linejoin="round"/>
			<path id="Vector" d="M293 372L293 383L2 383L2 372L293 372Z" stroke="#F1F6FF" stroke-opacity="1.000000" stroke-width="1.898378" stroke-linejoin="round"/>
			<path id="Vector" d="M587.54 14.23L587.54 383.47L576.15 383.47L576.15 14.23L587.54 14.23Z" stroke="#F1F6FF" stroke-opacity="1.000000" stroke-width="1.898378" stroke-linejoin="round"/>
			<path id="Vector" d="M876.1 14.23L876.1 383.47L864.71 383.47L864.71 14.23L876.1 14.23Z" stroke="#F1F6FF" stroke-opacity="1.000000" stroke-width="1.898378" stroke-linejoin="round"/>
			<path id="Vector" d="M14.23 14.23L14.23 383.47L1.89 383.47L1.89 14.23L14.23 14.23Z" stroke="#F1F6FF" stroke-opacity="1.000000" stroke-width="1.898378" stroke-linejoin="round"/>
			<path id="Vector" d="M304.07 14.23L304.07 383.47L292.68 383.47L292.68 14.23L304.07 14.23Z" stroke="#F1F6FF" stroke-opacity="1.000000" stroke-width="1.898378" stroke-linejoin="round"/>
			<path id="Vector" d="M876 372L876 383L588 383L588 372L876 372Z" stroke="#F1F6FF" stroke-opacity="1.000000" stroke-width="1.898378" stroke-linejoin="round"/>
			<path id="Vector" d="M234.53 386.19L235.37 386.19" stroke="#F1F6FF" stroke-opacity="1.000000" stroke-width="1.250419" stroke-linejoin="round" stroke-linecap="round"/>
			<path id="Vector" d="M293 383L576 384" stroke="#F1F6FF" stroke-opacity="1.000000" stroke-width="1.250419" stroke-linejoin="round" stroke-dasharray="1.66331 2.49496"/>
			<path id="Vector" d="M599.63 386.19L600.46 386.19" stroke="#F1F6FF" stroke-opacity="1.000000" stroke-width="1.250419" stroke-linejoin="round" stroke-linecap="round"/>
			<path id="Vector" d="M576 274.92L576 286.58L444.23 286.58L444.23 274.92L576 274.92Z" stroke="#F1F6FF" stroke-opacity="1.000000" stroke-width="1.042015" stroke-linejoin="round"/>
			<path id="Vector" d="M576 304.78L576 316.43L444.23 316.43L444.23 304.78L576 304.78Z" stroke="#F1F6FF" stroke-opacity="1.000000" stroke-width="1.042015" stroke-linejoin="round"/>
			<path id="Vector" d="M576 245.07L576 256.72L444.23 256.72L444.23 245.07L576 245.07Z" stroke="#F1F6FF" stroke-opacity="1.000000" stroke-width="1.042015" stroke-linejoin="round"/>
			<path id="Vector" d="M576 334.63L576 346.29L444.23 346.29L444.23 334.63L576 334.63Z" stroke="#F1F6FF" stroke-opacity="1.000000" stroke-width="1.042015" stroke-linejoin="round"/>
			<path id="Vector" d="M433.63 274.92L433.63 286.58L304 286.58L304 274.92L433.63 274.92Z" stroke="#F1F6FF" stroke-opacity="1.000000" stroke-width="1.042015" stroke-linejoin="round"/>
			<path id="Vector" d="M433.63 304.78L433.63 316.43L304 316.43L304 304.78L433.63 304.78Z" stroke="#F1F6FF" stroke-opacity="1.000000" stroke-width="1.042015" stroke-linejoin="round"/>
			<path id="Vector" d="M433.63 245.07L433.63 256.72L304 256.72L304 245.07L433.63 245.07Z" stroke="#F1F6FF" stroke-opacity="1.000000" stroke-width="1.042015" stroke-linejoin="round"/>
			<path id="Vector" d="M576 215L576 227L444 227L444 215L576 215Z" stroke="#F1F6FF" stroke-opacity="1.000000" stroke-width="1.042015" stroke-linejoin="round"/>
			<path id="Vector" d="M434 215L434 227L304 227L304 215L434 215Z" stroke="#F1F6FF" stroke-opacity="1.000000" stroke-width="1.042015" stroke-linejoin="round"/>
			<path id="Vector" d="M576 185L576 197L444 197L444 185L576 185Z" stroke="#F1F6FF" stroke-opacity="1.000000" stroke-width="1.042015" stroke-linejoin="round"/>
			<path id="Vector" d="M434 185L434 197L304 197L304 185L434 185Z" stroke="#F1F6FF" stroke-opacity="1.000000" stroke-width="1.042015" stroke-linejoin="round"/>
			<path id="Vector" d="M576 153L576 165L444 165L444 153L576 153Z" stroke="#F1F6FF" stroke-opacity="1.000000" stroke-width="1.042015" stroke-linejoin="round"/>
			<path id="Vector" d="M434 153L434 165L304 165L304 153L434 153Z" stroke="#F1F6FF" stroke-opacity="1.000000" stroke-width="1.042015" stroke-linejoin="round"/>
			<path id="Vector" d="M576 119L576 131L444 131L444 119L576 119Z" stroke="#F1F6FF" stroke-opacity="1.000000" stroke-width="1.042015" stroke-linejoin="round"/>
			<path id="Vector" d="M433 119L433 131L304 131L304 119L433 119Z" stroke="#F1F6FF" stroke-opacity="1.000000" stroke-width="1.042015" stroke-linejoin="round"/>
			<path id="Vector" d="M576 85L576 97L444 97L444 85L576 85Z" stroke="#F1F6FF" stroke-opacity="1.000000" stroke-width="1.042015" stroke-linejoin="round"/>
			<path id="Vector" d="M433 85L433 97L304 97L304 85L433 85Z" stroke="#F1F6FF" stroke-opacity="1.000000" stroke-width="1.042015" stroke-linejoin="round"/>
			<path id="Vector" d="M588 52L588 64L444 64L444 52L588 52Z" stroke="#F1F6FF" stroke-opacity="1.000000" stroke-width="1.042015" stroke-linejoin="round"/>
			<path id="Vector" d="M433 52L433 64L293 64L293 52L433 52Z" stroke="#F1F6FF" stroke-opacity="1.000000" stroke-width="1.042015" stroke-linejoin="round"/>
			<path id="Vector" d="M433.63 334.63L433.63 346.29L304 346.29L304 334.63L433.63 334.63Z" stroke="#F1F6FF" stroke-opacity="1.000000" stroke-width="1.042015" stroke-linejoin="round"/>
			<path id="Vector" d="M444.42 52L444.42 362L433.42 362L433.42 52L444.42 52Z" stroke="#F1F6FF" stroke-opacity="1.000000" stroke-width="1.042015" stroke-linejoin="round"/>
		</g>
	</g>
	<g opacity="0.200000">
		<path id="Vector" d="M739.29 139.16L732.25 146.2" stroke="#F1F6FF" stroke-opacity="1.000000" stroke-width="1.423784" stroke-linejoin="round" stroke-linecap="round"/>
		<path id="Vector" d="M723 143.44L730.05 136.39" stroke="#F1F6FF" stroke-opacity="1.000000" stroke-width="1.423784" stroke-linejoin="round" stroke-linecap="round"/>
		<path id="Vector" d="M722.33 150.11L739.96 132.48" stroke="#F1F6FF" stroke-opacity="1.000000" stroke-width="1.423784" stroke-linejoin="round" stroke-linecap="round"/>
		<path id="Vector" d="M769.5 59.79L769.5 222.81L692.79 222.81L692.79 59.79L769.5 59.79Z" stroke="#F1F6FF" stroke-opacity="1.000000" stroke-width="2.135676" stroke-linejoin="round"/>
		<path id="Vector" d="M774.3 55L774.3 227.6L688 227.6L688 55L774.3 55Z" stroke="#F1F6FF" stroke-opacity="1.000000" stroke-width="2.135676" stroke-linejoin="round"/>
	</g>
	<g opacity="0.200000">
		<path id="Vector" d="M140.29 139.16L133.25 146.2" stroke="#F1F6FF" stroke-opacity="1.000000" stroke-width="1.423784" stroke-linejoin="round" stroke-linecap="round"/>
		<path id="Vector" d="M124 143.44L131.05 136.39" stroke="#F1F6FF" stroke-opacity="1.000000" stroke-width="1.423784" stroke-linejoin="round" stroke-linecap="round"/>
		<path id="Vector" d="M123.33 150.11L140.96 132.48" stroke="#F1F6FF" stroke-opacity="1.000000" stroke-width="1.423784" stroke-linejoin="round" stroke-linecap="round"/>
		<path id="Vector" d="M170.5 59.79L170.5 222.81L93.79 222.81L93.79 59.79L170.5 59.79Z" stroke="#F1F6FF" stroke-opacity="1.000000" stroke-width="2.135676" stroke-linejoin="round"/>
		<path id="Vector" d="M175.3 55L175.3 227.6L89 227.6L89 55L175.3 55Z" stroke="#F1F6FF" stroke-opacity="1.000000" stroke-width="2.135676" stroke-linejoin="round"/>
	</g>
</svg>
