<svg width="26.666016" height="26.666687" viewBox="0 0 26.666 26.6667" fill="none" xmlns="http://www.w3.org/2000/svg" xmlns:xlink="http://www.w3.org/1999/xlink">
	<desc>
			Created with Pixso.
	</desc>
	<defs/>
	<path id="Vector" d="M13.33 0C20.69 0 26.66 5.96 26.66 13.33C26.66 20.69 20.69 26.66 13.33 26.66C10.97 26.67 8.66 26.04 6.62 24.86L0 26.66L1.8 20.04C0.62 18 -0.01 15.69 0 13.33C0 5.96 5.96 0 13.33 0ZM8.78 7.06L8.52 7.07C8.34 7.08 8.18 7.13 8.02 7.21C7.88 7.29 7.75 7.39 7.63 7.51C7.47 7.66 7.38 7.79 7.28 7.92C6.79 8.56 6.52 9.35 6.53 10.16C6.53 10.81 6.7 11.44 6.97 12.04C7.51 13.24 8.41 14.52 9.59 15.7C9.88 15.98 10.16 16.26 10.46 16.53C11.93 17.83 13.68 18.76 15.58 19.26L16.34 19.37C16.58 19.39 16.83 19.37 17.08 19.36C17.47 19.34 17.85 19.23 18.19 19.05C18.36 18.96 18.53 18.86 18.7 18.76C18.7 18.76 18.76 18.72 18.87 18.64C19.05 18.5 19.16 18.41 19.31 18.25C19.42 18.14 19.51 18 19.59 17.85C19.69 17.63 19.8 17.22 19.84 16.87C19.87 16.61 19.86 16.46 19.86 16.37C19.85 16.23 19.73 16.08 19.6 16.02L18.83 15.67C18.83 15.67 17.67 15.17 16.96 14.84C16.88 14.81 16.8 14.79 16.72 14.79C16.63 14.78 16.54 14.79 16.45 14.82C16.37 14.85 16.29 14.9 16.22 14.96C16.21 14.96 16.12 15.03 15.16 16.2C15.1 16.27 15.03 16.33 14.94 16.36C14.85 16.39 14.76 16.4 14.67 16.37C14.58 16.35 14.5 16.32 14.41 16.29C14.25 16.22 14.19 16.19 14.08 16.14C13.31 15.81 12.6 15.36 11.98 14.8C11.81 14.66 11.65 14.5 11.49 14.34C10.97 13.84 10.51 13.27 10.13 12.65L10.06 12.53C10 12.44 9.95 12.35 9.92 12.25C9.87 12.06 10 11.9 10 11.9C10 11.9 10.33 11.54 10.48 11.35C10.62 11.17 10.75 10.98 10.83 10.86C10.98 10.6 11.03 10.34 10.95 10.14C10.58 9.23 10.19 8.32 9.79 7.42C9.71 7.24 9.48 7.11 9.27 7.09C9.2 7.08 9.12 7.07 9.05 7.07C8.87 7.06 8.69 7.06 8.51 7.07L8.78 7.06L8.78 7.06Z" fill="#0060FE" fill-opacity="1.000000" fill-rule="nonzero"/>
</svg>
