<svg width="878.000000" height="385.370819" viewBox="0 0 878 385.371" fill="none" xmlns="http://www.w3.org/2000/svg" xmlns:xlink="http://www.w3.org/1999/xlink">
	<desc>
			Created with Pixso.
	</desc>
	<defs>
		<clipPath id="clip431_480">
			<rect id="Frame" width="878.000000" height="385.370819" fill="white" fill-opacity="0"/>
		</clipPath>
	</defs>
	<g opacity="0.200000">
		<g clip-path="url(#clip431_480)">
			<path id="Vector" d="M876.12 2.49L876.12 14.13L2.24 14.13L2.24 2.49L876.12 2.49Z" stroke="#F1F6FF" stroke-opacity="1.000000" stroke-width="1.898378" stroke-linejoin="round"/>
			<path id="Vector" d="M271.71 371.85L271.71 383.49L2.24 383.49L2.24 371.85L271.71 371.85Z" stroke="#F1F6FF" stroke-opacity="1.000000" stroke-width="1.898378" stroke-linejoin="round"/>
			<path id="Vector" d="M271.46 14.23L271.46 54.1L260.07 54.1L260.07 14.23L271.46 14.23Z" stroke="#F1F6FF" stroke-opacity="1.000000" stroke-width="1.898378" stroke-linejoin="round"/>
			<path id="Vector" d="M576.15 14.23L576.15 54.1L563.81 54.1L563.81 14.23L576.15 14.23Z" stroke="#F1F6FF" stroke-opacity="1.000000" stroke-width="1.898378" stroke-linejoin="round"/>
			<path id="Vector" d="M587.54 14.23L587.54 383.47L576.15 383.47L576.15 14.23L587.54 14.23Z" stroke="#F1F6FF" stroke-opacity="1.000000" stroke-width="1.898378" stroke-linejoin="round"/>
			<path id="Vector" d="M876.1 14.23L876.1 383.47L864.71 383.47L864.71 14.23L876.1 14.23Z" stroke="#F1F6FF" stroke-opacity="1.000000" stroke-width="1.898378" stroke-linejoin="round"/>
			<path id="Vector" d="M14.23 14.23L14.23 383.47L1.89 383.47L1.89 14.23L14.23 14.23Z" stroke="#F1F6FF" stroke-opacity="1.000000" stroke-width="1.898378" stroke-linejoin="round"/>
			<path id="Vector" d="M260.07 14.23L260.07 383.47L248.68 383.47L248.68 14.23L260.07 14.23Z" stroke="#F1F6FF" stroke-opacity="1.000000" stroke-width="1.898378" stroke-linejoin="round"/>
			<path id="Vector" d="M875.75 371.85L875.75 383.49L564.09 383.49L564.09 371.85L875.75 371.85Z" stroke="#F1F6FF" stroke-opacity="1.000000" stroke-width="1.898378" stroke-linejoin="round"/>
			<path id="Vector" d="M576.15 54.1L576.15 383.47L563.81 383.47L563.81 54.1L576.15 54.1Z" stroke="#F1F6FF" stroke-opacity="1.000000" stroke-width="1.898378" stroke-linejoin="round"/>
			<path id="Vector" d="M271.46 54.1L271.46 383.47L260.07 383.47L260.07 54.1L271.46 54.1Z" stroke="#F1F6FF" stroke-opacity="1.000000" stroke-width="1.898378" stroke-linejoin="round"/>
			<path id="Vector" d="M563.81 383.47L271.46 383.47L271.46 372.08L563.81 372.08L563.81 383.47Z" stroke="#F1F6FF" stroke-opacity="1.000000" stroke-width="1.898378" stroke-linejoin="round"/>
			<path id="Vector" d="M423.33 54.1L423.33 368.28L411.94 368.28L411.94 54.1L423.33 54.1Z" stroke="#F1F6FF" stroke-opacity="1.000000" stroke-width="1.898378" stroke-linejoin="round"/>
			<path id="Vector" d="M271.71 383.47L2.24 383.47L2.24 377.05L2.24 15.27L2.24 8.86L2.24 2.24L876.12 2.24L876.12 8.86L876.12 15.27L876.12 377.05L876.12 383.47L564.09 383.47L564.09 377.05L564.09 54.51L417.9 54.51L271.71 54.51L271.71 377.05L271.71 383.47Z" stroke="#F1F6FF" stroke-opacity="1.000000" stroke-width="2.610270" stroke-linejoin="round"/>
			<path id="Vector" d="M352.02 138.26L344.98 145.31" stroke="#F1F6FF" stroke-opacity="1.000000" stroke-width="1.423784" stroke-linejoin="round" stroke-linecap="round"/>
			<path id="Vector" d="M335.73 142.54L342.77 135.5" stroke="#F1F6FF" stroke-opacity="1.000000" stroke-width="1.423784" stroke-linejoin="round" stroke-linecap="round"/>
			<path id="Vector" d="M335.06 148.62L352.69 130.98" stroke="#F1F6FF" stroke-opacity="1.000000" stroke-width="1.423784" stroke-linejoin="round" stroke-linecap="round"/>
			<path id="Vector" d="M503.89 138.26L496.85 145.31" stroke="#F1F6FF" stroke-opacity="1.000000" stroke-width="1.423784" stroke-linejoin="round" stroke-linecap="round"/>
			<path id="Vector" d="M487.6 142.54L494.65 135.5" stroke="#F1F6FF" stroke-opacity="1.000000" stroke-width="1.423784" stroke-linejoin="round" stroke-linecap="round"/>
			<path id="Vector" d="M486.93 148.62L504.56 130.98" stroke="#F1F6FF" stroke-opacity="1.000000" stroke-width="1.423784" stroke-linejoin="round" stroke-linecap="round"/>
			<path id="Vector" d="M185.1 138.26L178.06 145.31" stroke="#F1F6FF" stroke-opacity="1.000000" stroke-width="1.423784" stroke-linejoin="round" stroke-linecap="round"/>
			<path id="Vector" d="M168.81 142.54L175.85 135.5" stroke="#F1F6FF" stroke-opacity="1.000000" stroke-width="1.423784" stroke-linejoin="round" stroke-linecap="round"/>
			<path id="Vector" d="M168.14 148.62L185.77 130.98" stroke="#F1F6FF" stroke-opacity="1.000000" stroke-width="1.423784" stroke-linejoin="round" stroke-linecap="round"/>
			<path id="Vector" d="M94 138.26L86.96 145.31" stroke="#F1F6FF" stroke-opacity="1.000000" stroke-width="1.423784" stroke-linejoin="round" stroke-linecap="round"/>
			<path id="Vector" d="M77.71 142.54L84.76 135.5" stroke="#F1F6FF" stroke-opacity="1.000000" stroke-width="1.423784" stroke-linejoin="round" stroke-linecap="round"/>
			<path id="Vector" d="M77.04 149.22L94.68 131.58" stroke="#F1F6FF" stroke-opacity="1.000000" stroke-width="1.423784" stroke-linejoin="round" stroke-linecap="round"/>
			<path id="Vector" d="M215.31 58.89L215.31 221.91L138.6 221.91L138.6 58.89L215.31 58.89Z" stroke="#F1F6FF" stroke-opacity="1.000000" stroke-width="2.135676" stroke-linejoin="round"/>
			<path id="Vector" d="M220.11 54.1L220.11 226.7L133.81 226.7L133.81 54.1L220.11 54.1Z" stroke="#F1F6FF" stroke-opacity="1.000000" stroke-width="2.135676" stroke-linejoin="round"/>
			<path id="Vector" d="M124.22 58.89L124.22 221.91L47.5 221.91L47.5 58.89L124.22 58.89Z" stroke="#F1F6FF" stroke-opacity="1.000000" stroke-width="2.135676" stroke-linejoin="round"/>
			<path id="Vector" d="M129.01 54.1L129.01 226.7L42.71 226.7L42.71 54.1L129.01 54.1Z" stroke="#F1F6FF" stroke-opacity="1.000000" stroke-width="2.135676" stroke-linejoin="round"/>
			<path id="Vector" d="M691.99 138.26L684.95 145.31" stroke="#F1F6FF" stroke-opacity="1.000000" stroke-width="1.423784" stroke-linejoin="round" stroke-linecap="round"/>
			<path id="Vector" d="M675.7 142.54L682.75 135.5" stroke="#F1F6FF" stroke-opacity="1.000000" stroke-width="1.423784" stroke-linejoin="round" stroke-linecap="round"/>
			<path id="Vector" d="M675.03 149.22L692.67 131.58" stroke="#F1F6FF" stroke-opacity="1.000000" stroke-width="1.423784" stroke-linejoin="round" stroke-linecap="round"/>
			<path id="Vector" d="M813.3 58.89L813.3 221.91L736.59 221.91L736.59 58.89L813.3 58.89Z" stroke="#F1F6FF" stroke-opacity="1.000000" stroke-width="2.135676" stroke-linejoin="round"/>
			<path id="Vector" d="M818.1 54.1L818.1 226.7L731.79 226.7L731.79 54.1L818.1 54.1Z" stroke="#F1F6FF" stroke-opacity="1.000000" stroke-width="2.135676" stroke-linejoin="round"/>
			<path id="Vector" d="M722.2 58.89L722.2 221.91L645.49 221.91L645.49 58.89L722.2 58.89Z" stroke="#F1F6FF" stroke-opacity="1.000000" stroke-width="2.135676" stroke-linejoin="round"/>
			<path id="Vector" d="M727 54.1L727 226.7L640.7 226.7L640.7 54.1L727 54.1Z" stroke="#F1F6FF" stroke-opacity="1.000000" stroke-width="2.135676" stroke-linejoin="round"/>
			<path id="Vector" d="M783.09 138.26L776.05 145.31" stroke="#F1F6FF" stroke-opacity="1.000000" stroke-width="1.423784" stroke-linejoin="round" stroke-linecap="round"/>
			<path id="Vector" d="M766.8 142.54L773.84 135.5" stroke="#F1F6FF" stroke-opacity="1.000000" stroke-width="1.423784" stroke-linejoin="round" stroke-linecap="round"/>
			<path id="Vector" d="M766.13 149.22L783.76 131.58" stroke="#F1F6FF" stroke-opacity="1.000000" stroke-width="1.423784" stroke-linejoin="round" stroke-linecap="round"/>
			<path id="Vector" d="M813.3 58.89L813.3 221.91L736.59 221.91L736.59 58.89L813.3 58.89Z" stroke="#F1F6FF" stroke-opacity="1.000000" stroke-width="2.135676" stroke-linejoin="round"/>
			<path id="Vector" d="M818.1 54.1L818.1 226.7L731.79 226.7L731.79 54.1L818.1 54.1Z" stroke="#F1F6FF" stroke-opacity="1.000000" stroke-width="2.135676" stroke-linejoin="round"/>
		</g>
	</g>
</svg>
