<svg width="48.000000" height="48.000000" viewBox="0 0 48 48" fill="none" xmlns="http://www.w3.org/2000/svg" xmlns:xlink="http://www.w3.org/1999/xlink">
	<desc>
			Created with Pixso.
	</desc>
	<defs>
		<clipPath id="clip370_366">
			<rect id="fullscreen-fill" width="16.000000" height="16.000000" transform="translate(16.000000 16.000000)" fill="white" fill-opacity="0"/>
		</clipPath>
	</defs>
	<circle id="Ellipse 1" cx="24.000000" cy="24.000000" r="24.000000" fill="#0060FE" fill-opacity="1.000000"/>
	<rect id="fullscreen-fill" width="16.000000" height="16.000000" transform="translate(16.000000 16.000000)" fill="#FFFFFF" fill-opacity="0"/>
	<g clip-path="url(#clip370_366)">
		<path id="Vector" d="M26.66 18L30.66 18L30.66 22L29.33 22L29.33 19.33L26.66 19.33L26.66 18ZM17.33 18L21.33 18L21.33 19.33L18.66 19.33L18.66 22L17.33 22L17.33 18ZM29.33 28.66L29.33 26L30.66 26L30.66 30L26.66 30L26.66 28.66L29.33 28.66ZM18.66 28.66L21.33 28.66L21.33 30L17.33 30L17.33 26L18.66 26L18.66 28.66Z" fill="#F1F6FF" fill-opacity="1.000000" fill-rule="nonzero"/>
	</g>
</svg>
